# xmcd CD database file
#
# Track frame offsets:
#	183
#	8003
#	29490
#	58753
#	78205
#	100328
#	126128
#	157413
#	172610
#
# Disc length: 2871 seconds
#
# Revision: 0
# Processed by: cddbd v1.5.2PL0 Copyright (c) Steve Scherf et al.
# Submitted via: CDex 1.70beta2
#
DISCID=680b3509
DTITLE=Joe Venegoni - Open Road
DYEAR=1992
DGENRE=Jazz
TTITLE0=Touch Through Veils
TTITLE1=Lost in America
TTITLE2=Song for Mattie
TTITLE3=Tropical Jazz
TTITLE4=Southwest
TTITLE5=Cross Country
TTITLE6=Pearl
TTITLE7=Beginning Continuing
TTITLE8=Between Us
EXTD=YEAR: 1992
EXTT0=
EXTT1=
EXTT2=
EXTT3=
EXTT4=
EXTT5=
EXTT6=
EXTT7=
EXTT8=
PLAYORDER=
